<?xml version="1.0" encoding="UTF-8" standalone="no"?>
<svg
   xmlns:dc="http://purl.org/dc/elements/1.1/"
   xmlns:cc="http://creativecommons.org/ns#"
   xmlns:rdf="http://www.w3.org/1999/02/22-rdf-syntax-ns#"
   xmlns:svg="http://www.w3.org/2000/svg"
   xmlns="http://www.w3.org/2000/svg"
   xmlns:sodipodi="http://sodipodi.sourceforge.net/DTD/sodipodi-0.dtd"
   xmlns:inkscape="http://www.inkscape.org/namespaces/inkscape"
   width="512"
   height="512"
   viewBox="0 0 512 512"
   version="1.1"
   id="svg8"
   inkscape:version="1.0.1 (3bc2e813f5, 2020-09-07)"
   sodipodi:docname="PreviewImage.svg"
   inkscape:export-filename="C:\Git\MovableBridge\Workshop\PreviewImage.png"
   inkscape:export-xdpi="96"
   inkscape:export-ydpi="96">
  <defs
     id="defs2" />
  <sodipodi:namedview
     id="base"
     pagecolor="#ffffff"
     bordercolor="#666666"
     borderopacity="1.0"
     inkscape:pageopacity="0.0"
     inkscape:pageshadow="2"
     inkscape:zoom="1"
     inkscape:cx="527.4824"
     inkscape:cy="171.99201"
     inkscape:document-units="px"
     inkscape:current-layer="layer1"
     inkscape:document-rotation="0"
     showgrid="false"
     inkscape:snap-page="true"
     inkscape:window-width="1920"
     inkscape:window-height="1017"
     inkscape:window-x="-8"
     inkscape:window-y="-8"
     inkscape:window-maximized="1" />
  <metadata
     id="metadata5">
    <rdf:RDF>
      <cc:Work
         rdf:about="">
        <dc:format>image/svg+xml</dc:format>
        <dc:type
           rdf:resource="http://purl.org/dc/dcmitype/StillImage" />
        <dc:title></dc:title>
      </cc:Work>
    </rdf:RDF>
  </metadata>
  <g
     inkscape:label="Layer 1"
     inkscape:groupmode="layer"
     id="layer1">
    <rect
       style="fill:#212946;stroke-width:4;stroke-opacity:0.2;stop-color:#000000;fill-opacity:1"
       id="rect868"
       width="512"
       height="512"
       x="0"
       y="0" />
    <g
       id="g15082"
       transform="matrix(1.4687538,0,0,-1.4687538,-188.64593,660.99692)"
       style="stroke-width:0.851062">
      <path
         id="path15084"
         style="fill:#5fd1da;fill-opacity:1;fill-rule:nonzero;stroke:none;stroke-width:0.851061"
         d="m 302.73967,421.70199 c -2.69756,0 -5.39475,-1.02954 -7.45419,-3.08754 -0.67583,-0.67474 -1.23854,-1.41952 -1.69172,-2.20918 l -5.47483,-9.39261 h -0.0237 L 182.84094,224.57455 c -0.018,-0.0337 -0.0334,-0.0675 -0.0531,-0.10378 -0.5329,-0.85861 -0.95377,-1.81094 -1.23315,-2.84084 -1.50355,-5.62206 1.83356,-11.40285 7.45563,-12.90927 0.93007,-0.24958 1.86301,-0.36341 2.77871,-0.3591 h 221.95058 c 5.82136,0 10.53993,4.71893 10.53993,10.54173 0,1.90215 -0.5092,3.6919 -1.39295,5.23495 -0.007,0.0126 -0.0154,0.0223 -0.018,0.0348 L 313.56868,413.92533 c -1.3872,2.39304 -2.02819,3.34106 -3.37625,4.68912 -2.05764,2.058 -4.7552,3.08754 -7.45276,3.08754 z" />
      <path
         id="path15086"
         style="fill:#212946;fill-opacity:1;fill-rule:nonzero;stroke:none;stroke-width:0.851061"
         d="m 302.73967,419.06046 c -2.55858,0.0183 -5.36962,-1.29025 -6.74425,-3.73392 L 184.92695,222.88535 c -0.63956,-1.31 -0.90888,-2.44906 -0.9175,-3.75224 0,-2.33271 1.03097,-4.5462 2.81821,-6.04975 1.57537,-1.21627 3.06492,-1.85044 5.07085,-1.85044 h 221.88988 c 1.35381,-0.0126 2.70869,0.31277 3.94328,1.12506 2.31296,1.39869 3.73392,3.90808 3.73679,6.61677 -0.0661,1.39833 -0.41225,2.8728 -1.03385,3.9106 l -111.0024,192.47063 c -0.0111,0.0169 -0.0212,0.0338 -0.0337,0.0506 -0.01,0.0165 -0.0223,0.0309 -0.0323,0.0517 -0.39393,0.63129 -0.8877,1.18682 -1.45328,1.66371 -1.28629,1.11644 -2.9008,1.78688 -4.60222,1.90646 -0.19068,0.0194 -0.38136,0.0305 -0.57097,0.032 z M 191.89851,211.23292 h -0.54691 0.55804 z M 302.62476,380.9176 387.26565,234.2153 h -169.401 z" />
      <path
         id="path15090"
         style="fill:#212946;fill-opacity:1;fill-rule:evenodd;stroke:none;stroke-width:0.851061"
         d="m 335.86124,237.10785 v 38.93 h 24.14945 l 22.45774,-38.93 z m -63.3671,10.59919 v 4.54333 l 1.39007,0.58353 c 1.47554,0.61299 3.06061,0.93007 4.65286,0.93007 1.59907,0 3.1827,-0.31708 4.65968,-0.93007 l 2.78733,-1.16851 c 1.47554,-0.61298 3.06061,-0.93006 4.65285,-0.93006 1.59907,0 3.17588,0.31708 4.65286,0.93006 l 2.79415,1.16851 c 1.47734,0.61299 3.05379,0.93007 4.65286,0.93007 1.59907,0 3.17588,-0.31708 4.65285,-0.93007 l 2.78734,-1.16851 c 1.47697,-0.61298 3.06096,-0.93006 4.66003,-0.93006 1.59189,0 3.17552,0.31708 4.65286,0.93006 l 2.78697,1.16851 c 1.47734,0.61299 3.06097,0.93007 4.65286,0.93007 1.59943,0 3.18306,-0.31708 4.65321,-0.93007 l 1.3969,-0.58353 v -4.54333 l -1.3969,0.58461 c -1.47015,0.61191 -3.05378,0.92325 -4.65321,0.92325 -1.59189,0 -3.17552,-0.31134 -4.65286,-0.92325 l -2.78697,-1.16815 c -1.47734,-0.61298 -3.06097,-0.93007 -4.65286,-0.93007 -1.59907,0 -3.18306,0.31709 -4.66003,0.93007 l -2.78734,1.16815 c -1.47697,0.61191 -3.05378,0.92325 -4.65285,0.92325 -1.59907,0 -3.17552,-0.31134 -4.65286,-0.92325 l -2.79415,-1.16815 c -1.47698,-0.61298 -3.05379,-0.93007 -4.65286,-0.93007 -1.59224,0 -3.17731,0.31709 -4.65285,0.93007 l -2.78733,1.16815 c -1.47698,0.61191 -3.06061,0.92325 -4.65968,0.92325 -1.59225,0 -3.17732,-0.31134 -4.65286,-0.92325 z m 0,-9.08559 v 4.54333 l 1.39007,0.57672 c 1.47554,0.61981 3.06061,0.93689 4.65286,0.93689 1.59907,0 3.1827,-0.31708 4.65968,-0.93689 l 2.78733,-1.16169 c 1.47554,-0.61298 3.06061,-0.93007 4.65285,-0.93007 1.59907,0 3.17588,0.31709 4.65286,0.93007 l 2.79415,1.16169 c 1.47734,0.61981 3.05379,0.93689 4.65286,0.93689 1.59907,0 3.17588,-0.31708 4.65285,-0.93689 l 2.78734,-1.16169 c 1.47697,-0.61298 3.06096,-0.93007 4.66003,-0.93007 1.59189,0 3.17552,0.31709 4.65286,0.93007 l 2.78697,1.16169 c 1.47734,0.61981 3.06097,0.93689 4.65286,0.93689 1.59943,0 3.18306,-0.31708 4.65321,-0.93689 l 1.3969,-0.57672 v -4.54333 l -1.3969,0.58498 c -1.47015,0.61298 -3.05378,0.93007 -4.65321,0.93007 -1.59189,0 -3.17552,-0.31709 -4.65286,-0.93007 l -2.78697,-1.16851 c -1.47734,-0.61299 -3.06097,-0.93007 -4.65286,-0.93007 -1.59907,0 -3.18306,0.31708 -4.66003,0.93007 l -2.78734,1.16851 c -1.47697,0.61298 -3.05378,0.93007 -4.65285,0.93007 -1.59907,0 -3.17552,-0.31709 -4.65286,-0.93007 l -2.79415,-1.16851 c -1.47698,-0.61299 -3.05379,-0.93007 -4.65286,-0.93007 -1.59224,0 -3.17731,0.31708 -4.65285,0.93007 l -2.78733,1.16851 c -1.47698,0.61298 -3.06061,0.93007 -4.65968,0.93007 -1.59225,0 -3.17732,-0.31709 -4.65286,-0.93007 z m -49.48862,-1.5136 22.45092,38.93 h 24.15628 l -5.76247,9.98764 57.3748,33.16897 5.76247,-9.99446 -57.3748,-33.16215 v -38.93 z" />
    </g>
    <text
       xml:space="preserve"
       style="font-style:normal;font-variant:normal;font-weight:900;font-stretch:normal;font-size:45px;line-height:0.9;font-family:'Segoe UI';-inkscape-font-specification:'Segoe UI Heavy';text-align:center;letter-spacing:-1px;text-anchor:middle;white-space:pre;inline-size:603.085;fill:#ffb743;fill-opacity:1"
       x="310.02771"
       y="394.56558"
       id="text872"
       transform="translate(-54.789063,30.399123)"><tspan
         x="310.02771"
         y="394.56558"><tspan
           style="letter-spacing:-0.5px">MO</tspan><tspan
           dx="1.5"
           style="letter-spacing:-2px">V</tspan><tspan
           dx="-1.5"
           style="letter-spacing:-0.5px">ABLE 
</tspan></tspan><tspan
         x="310.02771"
         y="435.0656"><tspan
           style="letter-spacing:-0.5px">BRIDGE MOD</tspan></tspan></text>
  </g>
</svg>
